<svg fill="#000000" version="1.1" id="Capa_1" xmlns="http://www.w3.org/2000/svg" xmlns:xlink="http://www.w3.org/1999/xlink" width="30px" height="30px" viewBox="0 0 556.23 556.23" xml:space="preserve"><g id="SVGRepo_bgCarrier" stroke-width="0"></g><g id="SVGRepo_tracerCarrier" stroke-linecap="round" stroke-linejoin="round"></g><g id="SVGRepo_iconCarrier"> <g> <g> <path d="M177.097,556.23h202.037c17.623,0,47.496-23.934,47.496-42.113V32.025C426.63,14.363,412.104,0,394.253,0H161.979 c-17.853,0-32.378,14.363-32.378,32.025v482.084C129.601,532.297,159.474,556.23,177.097,556.23z M143.944,32.025 c0-9.754,8.09-17.681,18.035-17.681h232.274c9.943,0,18.033,7.927,18.033,17.681v19.278H143.944V32.025z M143.944,58.475h268.342 v433.258H143.944V58.475z M143.944,498.904h268.342v15.213c0,9.086-22.309,27.77-33.152,27.77H177.097 c-10.844,0-33.153-18.684-33.153-27.77V498.904L143.944,498.904z"></path> <path d="M251.934,533.979h51.245c5.92,0,10.729-4.809,10.729-10.729c0-5.91-4.809-10.719-10.729-10.719h-51.245 c-5.919,0-10.729,4.809-10.729,10.719C241.204,529.18,246.014,533.979,251.934,533.979z M251.934,519.703h51.245 c1.961,0,3.557,1.586,3.557,3.547s-1.596,3.557-3.557,3.557h-51.245c-1.96,0-3.558-1.596-3.558-3.557 S249.973,519.703,251.934,519.703z"></path> <path d="M200.611,518.508h3.854c1.233,0,2.228,0.994,2.228,2.219c0,1.232-0.995,2.236-2.228,2.236H193.43 c-1.32,0-2.391,1.072-2.391,2.391c0,1.32,1.071,2.391,2.391,2.391h11.035c3.863,0,7.009-3.145,7.009-7.018 c0-3.863-3.146-7-7.009-7h-3.854v-3.605l-10.327,5.957l10.327,5.967V518.508z"></path> <path d="M348.763,518.508h13.436c1.32,0,2.391-1.072,2.391-2.391c0-1.32-1.07-2.391-2.391-2.391h-13.436 c-1.318,0-2.391,1.07-2.391,2.391C346.372,517.436,347.444,518.508,348.763,518.508z"></path> <path d="M348.763,524.809h13.436c1.32,0,2.391-1.07,2.391-2.391c0-1.318-1.07-2.391-2.391-2.391h-13.436 c-1.318,0-2.391,1.072-2.391,2.391C346.372,523.738,347.444,524.809,348.763,524.809z"></path> <path d="M348.763,530.775h13.436c1.32,0,2.391-1.07,2.391-2.391c0-1.318-1.07-2.391-2.391-2.391h-13.436 c-1.318,0-2.391,1.072-2.391,2.391C346.372,529.705,347.444,530.775,348.763,530.775z"></path> </g> </g> </g></svg>